<svg xmlns="http://www.w3.org/2000/svg" viewBox="0 0 60 60" fill="none">
  <ellipse cx="30" cy="22" rx="18" ry="13" fill="#60A5FA"/>
  <ellipse cx="18" cy="26" rx="12" ry="10" fill="#3B82F6"/>
  <ellipse cx="42" cy="26" rx="12" ry="10" fill="#3B82F6"/>
  <ellipse cx="30" cy="28" rx="20" ry="9" fill="#93C5FD"/>
  <ellipse cx="26" cy="18" rx="8" ry="5" fill="#BFDBFE" opacity="0.6"/>
  <g fill="#60A5FA" opacity="0.8">
    <path d="M18 40 Q18 46 15 52 Q18 50 21 52 Q18 46 18 40Z"/>
    <path d="M28 42 Q28 48 25 54 Q28 52 31 54 Q28 48 28 42Z"/>
    <path d="M38 40 Q38 46 35 52 Q38 50 41 52 Q38 46 38 40Z"/>
  </g>
</svg>
